<svg xmlns="http://www.w3.org/2000/svg" width="133" height="79" fill="none" viewBox="0 0 133 79">
    <path fill="#C4C4C4" d="M0 0h133v79H0z"/>
    <path fill="#fff" fill-rule="evenodd" d="M62.622 29.824c-.26 0-.49.163-.578.407a2.613 2.613 0 0 1-2.46 1.735h-3.206a2 2 0 0 0-2 2V46.32a2 2 0 0 0 2 2h20.308a2 2 0 0 0 2-2V33.966a2 2 0 0 0-2-2h-3.052a2.613 2.613 0 0 1-2.461-1.735.613.613 0 0 0-.578-.407h-7.973zm-2.461-.265a2.613 2.613 0 0 1 2.46-1.735h7.974c1.105 0 2.09.695 2.461 1.735a.613.613 0 0 0 .578.407h3.052a4 4 0 0 1 4 4V46.32a4 4 0 0 1-4 4H56.378a4 4 0 0 1-4-4V33.966a4 4 0 0 1 4-4h3.205c.26 0 .49-.163.578-.407zm6.562 5.603a4.872 4.872 0 1 0 0 9.743 4.872 4.872 0 0 0 0-9.743zm-6.872 4.872a6.872 6.872 0 1 1 13.744 0 6.872 6.872 0 0 1-13.744 0zm15.95-3.73a1.07 1.07 0 1 0 0-2.142 1.07 1.07 0 0 0 0 2.141z" clip-rule="evenodd"/>
</svg>
