<svg xmlns="http://www.w3.org/2000/svg" width="25" height="20" fill="none" viewBox="0 0 25 20">
    <path fill="#fff" fill-rule="evenodd" d="M9.09 2.061c-.159 0-.3.1-.354.25a2.437 2.437 0 0 1-2.295 1.617H4.122a2.061 2.061 0 0 0-2.06 2.062v9.82c0 1.138.922 2.06 2.06 2.06h16.756a2.061 2.061 0 0 0 2.06-2.06V5.99a2.061 2.061 0 0 0-2.06-2.062h-2.186a2.437 2.437 0 0 1-2.295-1.617.376.376 0 0 0-.354-.25H9.09zm-2.295-.443A2.437 2.437 0 0 1 9.09 0h6.953c1.03 0 1.949.648 2.295 1.618.054.15.196.25.354.25h2.186A4.122 4.122 0 0 1 25 5.99v9.82a4.122 4.122 0 0 1-4.122 4.122H4.122A4.122 4.122 0 0 1 0 15.81V5.99a4.122 4.122 0 0 1 4.122-4.123h2.319c.159 0 .3-.1.354-.25zm5.871 5.098a4.09 4.09 0 1 0 0 8.178 4.09 4.09 0 0 0 0-8.178zm-6.15 4.089a6.15 6.15 0 1 1 12.3 0 6.15 6.15 0 0 1-12.3 0zm14.066-3.253a.934.934 0 1 0 0-1.867.934.934 0 0 0 0 1.867z" clip-rule="evenodd"/>
</svg>
