<svg xmlns="http://www.w3.org/2000/svg" width="39" height="39" fill="none" viewBox="0 0 39 39">
    <circle cx="19.5" cy="19.5" r="19.5" fill="#1DA1F2"/>
    <path fill="#fff" d="M26.344 16.75A7.233 7.233 0 0 0 28 15.031c-.625.281-1.25.469-1.875.531.688-.437 1.188-1.03 1.438-1.812-.657.375-1.344.656-2.094.781a3.79 3.79 0 0 0-1.094-.75 3.095 3.095 0 0 0-1.313-.281c-.593 0-1.125.156-1.625.438a3.41 3.41 0 0 0-1.187 1.218c-.313.5-.438 1.063-.438 1.625 0 .25 0 .5.063.75-1.344-.062-2.594-.375-3.781-1a8.644 8.644 0 0 1-2.969-2.437 3.25 3.25 0 0 0-.469 1.656c0 .563.125 1.094.406 1.563.25.5.626.875 1.063 1.187a2.698 2.698 0 0 1-1.469-.438v.063c0 .781.25 1.469.75 2.063.5.625 1.125 1 1.875 1.156a4.402 4.402 0 0 1-.875.093c-.187 0-.406 0-.594-.03.188.655.563 1.187 1.126 1.624.562.438 1.187.625 1.937.625-1.219.938-2.594 1.407-4.094 1.407-.312 0-.562 0-.781-.032 1.5 1 3.188 1.469 5.031 1.469 1.907 0 3.594-.469 5.094-1.469a8.862 8.862 0 0 0 3.156-3.531c.719-1.375 1.094-2.844 1.094-4.344 0-.187-.031-.312-.031-.406z"/>
</svg>
