<svg xmlns="http://www.w3.org/2000/svg" width="39" height="39" fill="none" viewBox="0 0 39 39">
    <circle cx="19.5" cy="19.5" r="19.5" fill="#5181B8"/>
    <path fill="#fff" d="M27.031 15.688c-.062.312-.312.843-.75 1.562a63.037 63.037 0 0 1-1.125 1.813c-.375.562-.593.843-.593.843-.125.188-.188.344-.188.438 0 .125.063.25.188.375l.28.312c1.5 1.563 2.345 2.625 2.532 3.188.063.25.031.468-.094.593-.125.125-.281.188-.531.188h-1.844a.9.9 0 0 1-.625-.219c-.125-.062-.375-.281-.687-.656a14.211 14.211 0 0 0-.844-.938c-.844-.78-1.469-1.187-1.844-1.187-.187 0-.312.031-.375.094-.062.062-.093.218-.093.406-.032.156-.032.469-.032.969v.812c0 .25-.062.438-.187.532-.188.125-.563.187-1.125.187-1 0-1.969-.281-2.969-.875-1-.563-1.875-1.406-2.625-2.5a15.792 15.792 0 0 1-1.781-2.906c-.375-.75-.688-1.438-.906-2.094-.157-.5-.22-.875-.22-1.094 0-.344.188-.531.626-.531h1.844c.218 0 .374.063.5.156.124.125.218.313.312.563.281.844.625 1.656 1.063 2.437.374.75.75 1.344 1.124 1.782.375.468.657.687.875.687.125 0 .188-.031.25-.125.063-.094.094-.281.094-.563V17.22c-.031-.313-.093-.625-.218-.875-.063-.125-.188-.282-.313-.469-.156-.188-.219-.313-.219-.438 0-.124.032-.218.125-.312A.656.656 0 0 1 17 15h2.906c.188 0 .313.063.375.156.063.125.125.281.125.531v3.626c0 .187.032.343.094.406.063.093.125.125.219.125a.815.815 0 0 0 .343-.094c.125-.063.282-.219.5-.469.375-.437.782-.968 1.188-1.625.25-.437.531-.937.781-1.5l.313-.625c.125-.344.406-.531.781-.531h1.844c.5 0 .687.25.562.688z"/>
</svg>
